<svg width="38.302" height="80.501" viewBox="0 0 38.302 80.501" xmlns="http://www.w3.org/2000/svg"><g id="svgGroup" stroke-linecap="round" fill-rule="evenodd" font-size="9pt" stroke="#000000" stroke-width="0.25mm" fill="#ff9d00" style="stroke:#ffffff;stroke-width:0.25mm;fill:#ff9d00"><path d="M 0 75.8 L 3.6 69 A 23.014 23.014 0 0 0 17.035 73.298 A 28.071 28.071 0 0 0 17.4 73.3 A 26.145 26.145 0 0 0 20.455 73.133 Q 23.352 72.791 25.3 71.75 Q 28.2 70.2 28.2 67.4 A 5.649 5.649 0 0 0 27.503 64.734 Q 27.065 63.906 26.352 63.089 A 11.94 11.94 0 0 0 25.8 62.5 Q 23.4 60.1 16.1 57 Q 8.82 53.88 5.183 50.835 A 17.163 17.163 0 0 1 4.15 49.9 A 11.774 11.774 0 0 1 0.626 41.914 A 15.716 15.716 0 0 1 0.6 41 Q 0.6 36 4.05 32.2 A 20.285 20.285 0 0 1 9.127 28.2 A 27.356 27.356 0 0 1 13.3 26.3 Q 9.502 24.574 7.039 22.633 A 16.283 16.283 0 0 1 5.1 20.85 A 10.218 10.218 0 0 1 2.413 14.198 A 13.259 13.259 0 0 1 2.4 13.6 A 11.396 11.396 0 0 1 6.308 4.877 A 16.082 16.082 0 0 1 7.55 3.85 A 18.141 18.141 0 0 1 13.724 0.918 Q 16.257 0.229 19.252 0.057 A 35.711 35.711 0 0 1 21.3 0 Q 25.6 0 29.85 1.25 A 35.5 35.5 0 0 1 33.784 2.65 A 26.326 26.326 0 0 1 37.2 4.4 L 33.4 10.6 Q 31.2 9.2 27.9 7.95 Q 24.6 6.7 21.1 6.7 A 22.576 22.576 0 0 0 18.332 6.858 Q 15.069 7.263 13.2 8.7 Q 11.663 9.883 11.034 11.135 A 3.896 3.896 0 0 0 10.6 12.9 Q 10.6 14.7 11.6 16.2 A 5.816 5.816 0 0 0 12.415 17.152 Q 13.322 18.024 14.847 18.942 A 25.201 25.201 0 0 0 15.55 19.35 Q 17.809 20.613 21.679 22.375 A 201.069 201.069 0 0 0 24.2 23.5 Q 31.344 26.548 34.677 29.959 A 14.708 14.708 0 0 1 35 30.3 Q 38.3 33.9 38.3 38.9 A 13.381 13.381 0 0 1 37.355 43.988 A 12.503 12.503 0 0 1 34.95 47.75 Q 31.6 51.4 25.7 53.8 A 34.72 34.72 0 0 1 29.112 55.511 Q 32.27 57.334 34.05 59.45 Q 36.7 62.6 36.7 66.7 Q 36.7 73 31.3 76.75 A 19.778 19.778 0 0 1 24.861 79.618 Q 21.418 80.5 17.2 80.5 Q 7.1 80.5 0 75.8 Z M 19.5 50.6 A 22.685 22.685 0 0 0 23.45 49.002 A 17.012 17.012 0 0 0 27.05 46.5 A 8.681 8.681 0 0 0 29.992 40.203 A 10.588 10.588 0 0 0 30 39.8 A 8.642 8.642 0 0 0 27.771 33.981 A 10.949 10.949 0 0 0 27.7 33.9 A 11.231 11.231 0 0 0 25.741 32.183 Q 23.676 30.73 20.432 29.498 A 39.893 39.893 0 0 0 19.9 29.3 A 24.498 24.498 0 0 0 15.836 30.867 A 18.052 18.052 0 0 0 12 33.4 A 9.115 9.115 0 0 0 9.749 36.269 A 8.606 8.606 0 0 0 8.9 40.1 Q 8.9 43.4 11.45 46 A 13.533 13.533 0 0 0 13.664 47.791 Q 15.958 49.307 19.445 50.58 A 43.63 43.63 0 0 0 19.5 50.6 Z" vector-effect="non-scaling-stroke"/></g></svg>